<?xml version="1.0" standalone="no"?>
<svg viewBox="0 0 200 200" xmlns="http://www.w3.org/2000/svg">
  <path fill="#C8BEFF" d="M31,-50.9C41.9,-41.2,53.7,-35.6,63.7,-25.6C73.7,-15.6,81.9,-1.3,83.1,14.1C84.2,29.6,78.5,46.3,68.1,60C57.8,73.7,42.8,84.4,28.5,81.6C14.1,78.8,0.3,62.5,-14.3,55.2C-28.8,47.9,-44,49.6,-55.2,43.9C-66.3,38.1,-73.4,24.8,-69.3,13.6C-65.2,2.4,-49.9,-6.7,-40.1,-14.2C-30.2,-21.7,-25.9,-27.6,-20.1,-39.6C-14.4,-51.7,-7.2,-69.8,1.4,-72.1C10,-74.3,20.1,-60.6,31,-50.9Z" transform="translate(100 100)" />
</svg>
