 <!DOCTYPE svg PUBLIC "-//W3C//DTD SVG 1.1//EN" "http://www.w3.org/Graphics/SVG/1.1/DTD/svg11.dtd">
<svg xmlns="http://www.w3.org/2000/svg" width="865.76" height="682.89" viewBox="0 0 865.76 682.89">
<defs>
<style xmlns="http://www.w3.org/1999/xhtml">*, ::after, ::before { box-sizing: border-box; }
img, svg { vertical-align: middle; }
</style>
<style xmlns="http://www.w3.org/1999/xhtml">*, body, html { -webkit-font-smoothing: antialiased; }
img, svg { max-width: 100%; }
</style>
</defs>
<path d="M829.67,444c-2.23,12.53-6.79,25.88-12.32,38.76C787.69,551.81,731.42,606,661.6,633.93c-116.86,46.74-250.16,33-250.16,33C48.75,690.45,28.88,434.5,28.88,434.5c-6.76-61.69.48-115,15.42-160.49q2.34-7.12,4.93-14t5.32-13.31a357.12,357.12,0,0,1,21.31-42.31q4.5-7.65,9.23-14.84c4.3-6.58,8.73-12.89,13.22-18.92,54.14-72.63,119-106.14,119-106.14S323,8.34,461.38,14.55c67.67,3,143.16,21,217.92,67.77a487.79,487.79,0,0,1,45.43,32.21s11.54,10.1,27.29,28.75c22,26,52.15,68.62,70.69,123.65a319.65,319.65,0,0,1,14,59.51A306.65,306.65,0,0,1,829.67,444Z" fill="#e99944" data-primary="true"/>
<path d="M829.67,444c-2.23,12.53-6.79,25.88-12.32,38.76C787.69,551.81,731.42,606,661.6,633.93c-116.86,46.74-250.16,33-250.16,33-56.22,3.64-104.2.57-145.15-7.22C43.06,617.25,28.88,434.5,28.88,434.5c-6.76-61.69.48-115,15.42-160.49q2.34-7.12,4.93-14t5.32-13.31a357.12,357.12,0,0,1,21.31-42.31q4.5-7.65,9.23-14.84,6.45-9.87,13.22-18.92c54.14-72.63,119-106.14,119-106.14l.61-.32c8.71-4.48,110-55,241.11-49.72h.23l2.08.09h.33q14.73.67,29.93,2.33l1.51.17A442.17,442.17,0,0,1,679.3,82.32a487.79,487.79,0,0,1,45.43,32.21s11.54,10.1,27.29,28.75c22,26,52.15,68.62,70.69,123.65a319.65,319.65,0,0,1,14,59.51A306.65,306.65,0,0,1,829.67,444Z" fill="#fff" opacity="0.7"/>
<path d="M266.29,659.73C43.06,617.25,28.88,434.5,28.88,434.5c-6.76-61.69.48-115,15.42-160.49q2.34-7.12,4.93-14t5.32-13.31a357.12,357.12,0,0,1,21.31-42.31q4.5-7.65,9.23-14.84,6.45-9.87,13.22-18.92c54.14-72.63,119-106.14,119-106.14l.61-.32,13,164.54,1.51,19.12,9.79,123.87Z" fill="#fff" opacity="0.1"/>
<path d="M258.29,561.8c-19.56,27.17-50.8-11.43-50.8-11.43-8.63-12.7-18.54-6.86-18.54-6.86-16,2.29-22.6-1.78-22.6-1.78-35.31-14.22-20.58-55.11-20.58-55.11,6.35-19.56-8.63-17-8.63-17C119.87,466,112,460.46,112,460.46c-39.11-28.2-7.27-76.81-7.27-76.81,6.49-14.86,1.2-23-1.64-26a19.62,19.62,0,0,1-3.43-4.86c-15.71-32.24,27.84-55.67,27.84-55.67C142.73,291.3,144,277.33,144,277.33c1-27.68,6.09-32.51,6.09-32.51C177.78,199.61,230.56,233,230.56,233l6.38,75.71,11.8,139.86.67,8,1.83,21.65Z" fill="#e99944" opacity="0.56" data-primary="true"/>
<path d="M343.88,298.12s-48.41,3.59-47.44-7.22c0,0,3.48-18.7,44.13-13.74,0,0,8.14-24.53,37.09-23.76,0,0,34.26-1.39,52.69,10.49a24.5,24.5,0,0,0,21-1.55s24.65-6.48,32.31,6.88a6.49,6.49,0,0,1-3.26,9.25c-7.5,2.95-23.58,8-52.76,11.74C427.61,290.21,378.42,298.64,343.88,298.12Z" fill="#fff"/>
<path d="M465.3,48.59v0a136,136,0,0,1-1.25,19.2,126,126,0,0,1-8.81,32A138.89,138.89,0,0,1,432,136.7a183.07,183.07,0,0,1-25.66,24.15c-18.93,14.81-40.58,26.58-62.08,35.88-8.33,3.61-16.65,6.85-24.77,9.74h0a493.07,493.07,0,0,1-75.91,20.19c-8.48,1.53-13.44,2.16-13.44,2.16l-.86-11.06L227.32,193l-.56-7.21-.93-12-.47-6-.1-1.4-.41-5.17-.72-9.32-.94-12.15-1.65-21.27-.64-8.2-.48-6.25-.14-1.73-.69-8.93L218.78,83l-1.43-18.49s34.06-18.1,88.83-32.61a543.84,543.84,0,0,1,60.39-12.4,509,509,0,0,1,69.8-5.4q4.25,0,8.52,0l1.74,0h.61l1.4,0,1.09,0h.17l1.72,0h0l.48,0,2.12,0,3.19.11,1.62.06,2.31.1c1.23,5.6,2.15,11.07,2.8,16.4A152,152,0,0,1,465.3,48.59Z" fill="#fff" opacity="0.4"/>
<path d="M515.58,76.17c-8.38,66.55-72.14,60.58-72.14,60.58,18.29,31.11-20.06,61.08-20.17,61-47.86,33.9-82.44,14.35-82.44,14.35C338.29,240.25,300.2,253,300.2,253c-39.72,14.52-60.75,1.05-67.73-5.12L231,228.71a479.62,479.62,0,0,0,88.49-22.24h0c8.12-2.89,16.44-6.13,24.77-9.74,21.5-9.3,43.15-21.07,62.08-35.88A183.07,183.07,0,0,0,432,136.7a138.89,138.89,0,0,0,23.28-36.83,126,126,0,0,0,8.81-32,136,136,0,0,0,1.25-19.2v0a153,153,0,0,0-1.12-19.17q-.89-7.25-2.47-14.86,14.73.67,29.93,2.33l1.51.17C520.17,48.1,515.58,76.17,515.58,76.17Z" fill="#fff" opacity="0.2"/>
<path d="M464.18,31,221.54,118.52l-1.12-14.45,216-90q12.3-.09,25,.47C462.61,20.15,463.53,25.62,464.18,31Z" fill="#fff"/>
<path d="M464.05,67.83a126,126,0,0,1-8.81,32L224.13,151.94l-.94-12.15Z" fill="#fff"/>
<path d="M432,136.7a183.07,183.07,0,0,1-25.66,24.15l-180.47,13-.57-7.4Z" fill="#fff"/>
<path d="M366.57,19.48l-147,73.93L218.78,83l87.4-51.1A543.84,543.84,0,0,1,366.57,19.48Z" fill="#fff"/>
<path d="M344.22,196.73c-8.33,3.61-16.65,6.85-24.77,9.74h0L227.32,193l-.56-7.21Z" fill="#fff"/>
<path d="M243.54,226.66c-8.48,1.53-13.44,2.16-13.44,2.16l-.86-11.06Z" fill="#fff"/>
<polygon points="489.15 508.97 474.54 399.24 377.41 417.03 383 513.28 489.15 508.97" fill="#ccc"/>
<rect x="377.41" y="443.95" width="5.33" height="34.03" fill="#b3b3b3"/>
<line x1="425.16" y1="63.73" x2="589.5" y2="327.37" fill="none" stroke="#999" stroke-miterlimit="10" stroke-width="2"/>
<line x1="693.77" y1="296.63" x2="451.32" y2="51.03" fill="none" stroke="#999" stroke-miterlimit="10" stroke-width="2"/>
<polygon points="589.74 353.02 609.04 404.58 613.11 404.58 593.8 350.99 589.74 353.02" fill="#b3b3b3"/>
<polygon points="613.11 404.58 593.8 350.99 613.11 356.14 619.51 404.58 613.11 404.58" fill="#ccc"/>
<polygon points="573 438.11 662.89 451.06 760.33 419.51 671.02 426.93 573 438.11" fill="#ccc"/>
<polygon points="669.49 309.84 699.23 297.4 760.33 416.66 755.63 418.22 697.54 423.99 666.66 342.23 669.49 309.84" fill="#ccc"/>
<path d="M464,417.28s2.54-.51,1.78-9.4l-6.35.76A30.33,30.33,0,0,0,464,417.28Z" fill="#e99944" data-primary="true"/>
<path d="M464,417.28s2.54-.51,1.78-9.4l-6.35.76A30.33,30.33,0,0,0,464,417.28Z" opacity="0.2"/>
<path d="M651,395.44a102.16,102.16,0,0,0-14.86,7.74l-4.9,31.53-8.94,3.4s2.29-9.66-5.84-16.26c0,0-7.37-15.75-21.84-11.18,0,0-10.42,2-10.16,12.45h0c-.16-.07-8-3.21,0-10.33.76-.59,6.85-8.72,28.7-14.05C613.11,398.74,627.58,393.66,651,395.44Z" fill="#4907ab" data-secondary="true"/>
<path d="M651,395.44a102.16,102.16,0,0,0-14.86,7.74l-4.9,31.53-8.94,3.4s2.29-9.66-5.84-16.26c0,0-7.37-15.75-21.84-11.18,0,0-10.42,2-10.16,12.45h0c-.16-.07-8-3.21,0-10.33.76-.59,6.85-8.72,28.7-14.05C613.11,398.74,627.58,393.66,651,395.44Z" opacity="0.2"/>
<ellipse cx="388.88" cy="349.26" rx="15.37" ry="24.37" transform="translate(-130.11 287.13) rotate(-35.1)" fill="#f9b499"/>
<path d="M377.12,355.05s-10.13-17.14,1.05-20.76c0,0,16,.95,16.76-3.11,0,0,.34-1.23-5.54-6.59,0,0-11.22-11.45-23.16,1.76s-8.26,16.76-9,35a12.75,12.75,0,0,1-5,10.41,250.39,250.39,0,0,1-26.66,26.42s-46.74,19.3-31.25,31c0,0,24,33,68.86,15.5a6.93,6.93,0,0,0,3.71-3.42c3.91-7.95,16.19-34.07,18.11-52,0,0,3.06-10-1.9-23Z" fill="#4907ab" data-secondary="true"/>
<path d="M413.22,389.85c-14.22,8.38-28.4-3-28.4-3,2.34-11.42-2.2-21.77-2.2-21.77,16.14,13.3,23.28.81,23.28.81a14.34,14.34,0,0,0,2.62,8.94,6.5,6.5,0,0,0,5.39,2.86h5.15C419.32,385,413.22,389.85,413.22,389.85Z" fill="#f9b499"/>
<path d="M460,444.45s5.92,10.26,1.24,13.57a5.71,5.71,0,0,1-2.51.91s-21.62,3.06-39.61,6.37H419l-.29.05-.13,0a182.94,182.94,0,0,0-19.81,4.45s-2.28-9.14-2-17c0,0-7.62-4.83-11.94-9.66l-8.89,7.37s-17-10.41-16-21.59c0,0,6.7-31.46,24.94-42.14,0,0,10.49,8.44,22.47,5.47a15.49,15.49,0,0,0,10.8-9.18,13.51,13.51,0,0,0,1-5.45s23.21-3.25,39.8,6h0s-1.41,14.19,1.21,24.94a21.16,21.16,0,0,0,3.95,8.69H451.56S452.84,433.53,460,444.45Z" fill="#e99944" data-primary="true"/>
<path d="M388.88,369.15s12.65,14.22,19.64,5.65c0,0-2.32-2.45-2.62-8.94C405.9,365.86,401.37,374.87,388.88,369.15Z" fill="#f7a48b"/>
<path d="M371.82,327.37c-3.68,1.32-6.28,4.62-8,8-4.2,8.55-4.32,19.1-3.41,28.42,1.08,12.25-.82,25.16-7.33,35.76-8.19,13.8-24.19,20.37-39.66,21.28,15.55-1.48,30.77-7.78,39.07-21.64,6.34-10.5,8.26-23.23,7.26-35.33-1-10.09-.52-23.62,5.94-31.9a13.22,13.22,0,0,1,6.15-4.59Z" opacity="0.2"/>
<path d="M429.47,512a163.5,163.5,0,0,1-17.54-1.17l-5.31-7.2S420.57,505.13,429.47,512Z" fill="none" stroke="#0071f2" stroke-miterlimit="10"/>
<path d="M398.74,469.85l-31.33,46.22A754.8,754.8,0,0,1,337.79,604c-1.12,2.23-2.1,3.14-2.9,3.38h0c-1.37.42-2.18-1.11-2.18-1.11-2.1-6.12-7.94-6.82-11.37-6.66a14,14,0,0,0-3.69.71c-4.29,1.42-6,.11-6,.11l15.49-65.27c9.14-43.94,12.95-45.21,12.95-45.21C341.85,483.06,398.74,469.85,398.74,469.85Z" fill="#4907ab" data-secondary="true"/>
<path d="M398.74,469.85l-31.33,46.22A754.8,754.8,0,0,1,337.79,604c-1.12,2.23-2.1,3.14-2.9,3.38h0c-1.37.42-2.18-1.11-2.18-1.11-2.1-6.12-7.94-6.82-11.37-6.66a14,14,0,0,0-3.69.71c-4.29,1.42-6,.11-6,.11l15.49-65.27c9.14-43.94,12.95-45.21,12.95-45.21.26-1,1.64-2.09,3.81-3.27a54.81,54.81,0,0,1,5.59-2.55C366.07,477.44,398.74,469.85,398.74,469.85Z" opacity="0.2"/>
<path d="M334.89,607.35c-.87.84-3.19.07-3.19.07l-10-2.93a41.37,41.37,0,0,0-6.88-1.41c-4.72-.54-3.16-2.68-3.16-2.68s1.73,1.31,6-.11a14,14,0,0,1,3.69-.71c3.43-.16,9.27.54,11.37,6.66C332.71,606.24,333.52,607.77,334.89,607.35Z" fill="#4907ab" data-secondary="true"/>
<path d="M329.94,619.6a8.11,8.11,0,0,1,.31,2.27,3.21,3.21,0,0,1-1.08,2.34,3.38,3.38,0,0,1-2.18.87l-18.41.47c-14.28,1.51-27.27-2.32-30.81-3.49a1.25,1.25,0,0,1-.86-1.06,1.28,1.28,0,0,1,.62-1.24c1.91-1.13,6.6-1,9.45-.78a6.27,6.27,0,0,0,3.58-.86c3.2-1.85,9.89-2.22,9.89-2.22,15.24-1.27,18.33-15.93,18.33-15.93,12.24-2.22,13.93,6.27,13.93,6.27-3,3.14-3.23,8.3-3.16,10.88A11,11,0,0,0,329.94,619.6Z" fill="#f9b499"/>
<path d="M301.41,626.28a.37.37,0,0,1-.36-.28c-2.24-7.91-8.58-8.23-8.85-8.24a.38.38,0,0,1-.36-.4.37.37,0,0,1,.39-.36c.07,0,7.16.34,9.55,8.79a.38.38,0,0,1-.26.47Z" fill="#4907ab" data-secondary="true"/>
<path d="M305.85,626.28a.4.4,0,0,1-.38-.36c-.65-8.84-7-9.42-7.27-9.44a.38.38,0,0,1-.35-.4.4.4,0,0,1,.41-.36c.07,0,7.26.63,8,10.15a.38.38,0,0,1-.35.41Z" fill="#4907ab" data-secondary="true"/>
<path d="M331.69,610.94h-.06l-19-2.82a.38.38,0,0,1,.11-.76l19,2.82a.4.4,0,0,1,.32.44A.38.38,0,0,1,331.69,610.94Z" fill="#4907ab" data-secondary="true"/>
<path d="M328.87,624.83a.37.37,0,0,1-.38-.36c0-.06-.26-5.69-2.94-9.1l0,0c-.06-.09-1.36-2.19,0-5.78a.38.38,0,0,1,.49-.22.38.38,0,0,1,.23.49c-1.14,3.09-.16,4.9,0,5.09,2.83,3.61,3.08,9.28,3.09,9.52a.38.38,0,0,1-.37.39Z" fill="#4907ab" data-secondary="true"/>
<path d="M327,630.28a23,23,0,0,1-5.3.6H292.83c-9.22.08-14.2-1.46-16.54-2.54a5.58,5.58,0,0,1-3-3.21c-1.32-3.78,3.59-4.13,3.59-4.13a1.25,1.25,0,0,0,.86,1.06c3.54,1.17,16.53,5,30.81,3.49l18.41-.47a3.38,3.38,0,0,0,2.18-.87l2.38.15a1.61,1.61,0,0,1,1.42,2.19C332.15,628.61,329.38,629.7,327,630.28Z" fill="#4907ab" data-secondary="true"/>
<path d="M457.36,576.35a19.65,19.65,0,0,0-1.15,4.77c-.72,6.79-1.08,19.28-1.08,19.28-.51,13.72-12.84,9.66-12.84,9.66-3.78.59-5.56.29-6.25-.37h0c-1.37-1.32,1.56-4.08,1.56-4.08,5.84-17.66,4.57-28.82,4.57-28.82L436.33,572c8.38-6.09,10.88-11.34,10.88-11.34,1.23,3.9,6.39,4.21,6.39,4.21a6.88,6.88,0,0,1,2.39.38C460.34,566.83,458.53,573.25,457.36,576.35Z" fill="#f9b499"/>
<path d="M460.42,580.14c-1.81,3.76-2.5,10.86-2.5,10.86,2.29,24.64-15.24,24.39-15.24,24.39-7.25-.25-6.66-5.55-6.64-5.7.69.66,2.47,1,6.25.37,0,0,12.33,4.06,12.84-9.66,0,0,.36-12.51,1.09-19.3a19.31,19.31,0,0,1,1.13-4.73c1.18-3.09,3-9.53-1.36-11.15,8.58.52,6.3,9.77,5.17,13.14A14.52,14.52,0,0,1,460.42,580.14Z" fill="#4907ab" data-secondary="true"/>
<polygon points="442.18 533.6 490.23 512.07 486.11 508.97 433.88 512 427.61 510.69 411.44 510.18 428.84 530.09 442.18 533.6" fill="#ccc"/>
<path d="M451.56,417.28H441.34l12.51,12.6A103.84,103.84,0,0,1,451.56,417.28Z" opacity="0.2"/>
<path d="M369,445.29A145.28,145.28,0,0,0,381.88,413s-.41,8.38-2.69,22.61c0,0-1.27,3.8,5.58,7.61l-8.89,7.37A48.72,48.72,0,0,1,369,445.29Z" opacity="0.2"/>
<path d="M411.93,433.9c9.58,1.76,22.26,5.29,30.2-2.14-5.93,9.86-21.69,6.75-30.2,2.14Z" opacity="0.2"/>
<line x1="468.08" y1="386.55" x2="336.52" y2="106.73" fill="none" stroke="#999" stroke-miterlimit="10" stroke-width="2"/>
<line x1="349.47" y1="451.31" x2="312.13" y2="114.02" fill="none" stroke="gray" stroke-miterlimit="10" stroke-width="2"/>
<line x1="366.02" y1="327.37" x2="312.13" y2="114.02" fill="none" stroke="#999" stroke-miterlimit="10" stroke-width="2"/>
<polygon points="312.13 114.02 336.52 106.65 322.29 90.65 317.98 91.92 312.13 114.02" fill="none" stroke="gray" stroke-miterlimit="10" stroke-width="2"/>
<rect x="314.96" y="77.49" width="7.11" height="16.14" rx="2.98" transform="translate(-11.21 78.14) rotate(-13.75)" fill="#666"/>
<line x1="320.43" y1="93.4" x2="324.79" y2="110.19" fill="none" stroke="gray" stroke-miterlimit="10" stroke-width="2"/>
<path d="M732,381.47s-18.54-15-67.3,6.85L651,395.44s-23.11-1.27-37.84,3.3c0,0-1.71-24.71-15.84-40.8l-32.42,2.61a95.29,95.29,0,0,1,0-39s18.71-1.46,26.75-9.24c0,0,5.25-6.51,10.59-7.27l17.11-27.09,5.24,1.94s5.08-7.87,22.6-18.54L670,243.46a2.45,2.45,0,0,1,3,0c4.64,3.7,18.54,15.37,23.42,26.14a2.81,2.81,0,0,1-.58,3.17c-4.26,4.22-17.29,18-19.09,30.48a17.51,17.51,0,0,0,.13,6.05,13.79,13.79,0,0,0,2.21,5.1s10.42,18,36.83,46.74C716,361.15,728.42,372.58,732,381.47Z" fill="#e99944" data-primary="true"/>
<path d="M673.49,243.82l7.69-5.6s19.3-29.46,37.59-52.07c0,0,1.52-2,0-9.37,0,0-3-16.87.67-19.88,0,0,2.37-.47,3.39,7.92,0,0,1.27,6.6,3,6.6A30.89,30.89,0,0,0,735,156.9s2-7.07,3.81-6.31c0,0,3.56-1.52,1,8.13l-1.78,7.62s5.33-15.49,8.63-12.45c0,0,2.29-.66,0,7.16l-4.06,9.61s6.86-13.21,10.41-10.16c0,0,2.29,1.78-4.06,10.16l-2.29,4.06s5.85-6.6,8.39-5.59c0,0,3.3.26-6.35,10.93A62.21,62.21,0,0,1,733,193.26s-3.3,2.29-9.4,14.23L694,265.14S684.6,252.57,673.49,243.82Z" fill="#f9b499"/>
<path d="M737.73,408.53a14,14,0,0,1-7.89,6.93C723,417.86,707.12,422,671,426.93l.26-.12.15-.07h0l.18-.09.53-.26.1-.05L673,426l.55-.31c3-1.79,7.42-5.23,4.32-9h0c-9.3-17.5-42.22-13.67-42.87-13.6h0s11.18-6.34,16-7.61c0,0,53.08-31.5,81-14C732,381.47,745.41,393.22,737.73,408.53Z" fill="#4907ab" data-secondary="true"/>
<path d="M724.73,536.9c-8-2.44-15.11,2-18.24,4.39a15.94,15.94,0,0,1-5,2.63c-10.42,3.36-17.37,1.9-20.9.51a24.91,24.91,0,0,0-12.54-1.6c-11.88,1.65-23.22,8.81-23.22,8.81.25-5.84,18.28-12.19,18.28-12.19,15.75-5.85,18.8-10.42,18.8-10.42-1.27-5.84,1-6.86,1-6.86s3-.5,7.88,3.56c0,0,5.33,3.3,9.14-1.78l3.3-5.59C704.53,513.33,724.38,536.49,724.73,536.9Z" fill="#e99944" data-primary="true"/>
<path d="M714.19,548.33c-20.82,8.64-53.33,13.47-53.33,13.47-22.86,2-16-10.16-16-10.16s11.34-7.16,23.22-8.81a24.91,24.91,0,0,1,12.54,1.6c3.53,1.39,10.48,2.85,20.9-.51a15.94,15.94,0,0,0,5-2.63c3.13-2.43,10.23-6.83,18.24-4.39h0C726.89,543.76,714.19,548.33,714.19,548.33Z" fill="#4907ab" data-secondary="true"/>
<path d="M599.39,540h0c-2.56-8.11-26-5.3-26-5.3-14.53.28-28.39-4.85-28.39-4.85-12.95-4.57-29.46-4.31-29.46-4.31,2.79-6.86,51.3-11.43,51.3-11.43,1.27-8.38,3-7.11,3-7.11h.34c.66.13,2,1.14,1.44,7.37A29.71,29.71,0,0,0,595.07,512C601.42,520.14,599.39,540,599.39,540Z" fill="#e99944" data-primary="true"/>
<path d="M599.39,540c.26,16-27.17,10.42-27.17,10.42-20.07-2-31.5-2.54-31.5-2.54-18.29,0-25.14-7.88-25.14-7.88-10.67-9.65,0-14.47,0-14.47s16.51-.26,29.46,4.31c0,0,13.86,5.13,28.39,4.85,0,0,23.4-2.81,26,5.3Z" fill="#4907ab" data-secondary="true"/>
<path d="M563.35,351l-35.48-9.14a22.3,22.3,0,0,1-7.28-3.38L487.43,315a9.87,9.87,0,0,0-3.31-1.52c-5.23-1.29-20.49-5.65-21.12-12.8,0,0,2.29-2.29,8.13,2.54,0,0-7.62-5.34-5.84-8.89,0,0,1.52-3.56,8.63,3.81,0,0-7.87-7.62-4.57-9.14,0,0,4.32-1.78,12.45,8.12,0,0,3.81,2,3.81-3.3l-1.93-7.93a.87.87,0,0,1,1.18-1c2.28.95,6.37,3.88,7.1,12.76,0,0-.77,5.33,5.58,8.38,0,0,25.66,13,47.24,16.51l20.07-1A109.26,109.26,0,0,0,563.35,351Z" fill="#f9b499"/>
<line x1="423.63" y1="64.49" x2="575.52" y2="385.02" fill="none" stroke="gray" stroke-miterlimit="10" stroke-width="2"/>
<polygon points="423.63 64.49 451.32 51.03 428.46 36.3 424.66 38.86 423.63 64.49" fill="none" stroke="gray" stroke-miterlimit="10" stroke-width="2"/>
<line x1="436.87" y1="57.76" x2="426.82" y2="37.4" fill="none" stroke="gray" stroke-miterlimit="10" stroke-width="2"/>
<rect x="420.6" y="23.72" width="7.6" height="16.76" rx="3.18" transform="translate(18.58 160.38) rotate(-21.87)" fill="#666"/>
<path d="M752,141.45l-171.17,2.74s-48.29-2.16-39-27.49c0,0-.84-10.12,47.65-8.33,0,0,4.56-29.53,57.9-16.79,0,0-3.3-9.65,31.9-11.09a489.67,489.67,0,0,1,45.43,32.21S736.27,122.8,752,141.45Z" fill="#fff"/>
<path d="M836.69,326.44c-40.47-2.7-145.33-11.13-87.58-22.95,0,0-9.51-23.36,52.71-20.82a74.34,74.34,0,0,1,20.89-15.74A319.65,319.65,0,0,1,836.69,326.44Z" fill="#fff"/>
<path d="M119.87,220.06c0,33.59-23.14,60.83-51.69,60.83A45.26,45.26,0,0,1,44.3,274q2.34-7.12,4.93-14a358.79,358.79,0,0,1,35.86-70.46c4.3-6.58,8.73-12.89,13.22-18.92C111.37,181.67,119.87,199.7,119.87,220.06Z" fill="#fff" opacity="0.4"/>
<path d="M94.72,218.28c0,23.64-16.66,42.8-37.21,42.8A32.47,32.47,0,0,1,49.23,260a358.79,358.79,0,0,1,35.86-70.46A46.41,46.41,0,0,1,94.72,218.28Z" fill="#fff" opacity="0.4"/>
<path d="M219.1,88.48s-12.91-9.33-12.39,16.74a40.48,40.48,0,0,1,13.57-2.88Z" fill="#fff" opacity="0.32"/>
<path d="M226.76,184c-17.81,9.78-17.11-15.87-17.11-15.87-14.86,14.48-23.24,6.73-23.24,6.73-8.13-7.75,4.66-19.94,4.66-19.94-15.4,5.84-21.68-5.08-21.68-5.08-6.09-15.49,13.85-19.23,13.85-19.23-11.81-5.51-10.6-12.08-10.6-12.08,1.47-10.47,19.1-4,19.1-4-9.14-10-4.31-17.72-4.31-17.72,7.8-7.56,18.38,8.52,18.56,8.79-11.58,5.3-19.58,16.6-19.58,29.69,0,18.16,15.41,32.89,34.42,32.89a35.66,35.66,0,0,0,4.53-.29l-.1-1.4-.41-5.17-.49-6.35h0Z" fill="#fff" opacity="0.32"/>
<path d="M260.57,323.05l11.59,42,16.35-7.2,30.23-20.58-15.23-.45-8.67-23.43a1.81,1.81,0,0,0-2.27-1.09Z" fill="#ccc"/>
<path d="M272.16,365.05s-.49,2,3,1.75a9.61,9.61,0,0,0,3.33-.84l6.84-3.09a71.56,71.56,0,0,0,11.55-6.56l22.86-16s2.8-2-1-3.05l-30.23,20.58Z" fill="gray"/>
<line x1="263.42" y1="207.5" x2="280.13" y2="338.29" fill="none" stroke="#999" stroke-miterlimit="10" stroke-width="2"/>
<line x1="272.13" y1="207.5" x2="312.13" y2="324.37" fill="none" stroke="#999" stroke-miterlimit="10" stroke-width="2"/>
<line x1="260.83" y1="324.32" x2="263.42" y2="208.37" fill="none" stroke="#999" stroke-miterlimit="10" stroke-width="2"/>
<line x1="290.7" y1="312.88" x2="273.18" y2="210.57" fill="none" stroke="#999" stroke-miterlimit="10" stroke-width="2"/>
<polygon points="266.92 200.37 262.86 207.5 273.18 207.5 266.92 200.37" fill="none" stroke="gray" stroke-miterlimit="10" stroke-width="2"/>
<path d="M597.27,291.24s6.19,3.62,4.92,13.78c0,0,16-8.39,20.31-20.32a6.75,6.75,0,0,1,2-4.83s-6.34-5.59-6.09-11.56H608.21S607.65,283.05,597.27,291.24Z" fill="#f9b499"/>
<path d="M597.27,291.24s2.76,1.46,4.36,6.16c0,0,9.16-11.47,4.75-19.94C606.38,277.46,603,288.38,597.27,291.24Z" fill="#f7a48b"/>
<ellipse cx="591.6" cy="269.67" rx="24.82" ry="16.33" transform="translate(218.16 801.89) rotate(-79.45)" fill="#f9b499"/>
<path d="M578.45,257.68s11.54-9.81,17.64-6.25c0,0,7,3.81,8.06,13.71l6.39,4.53v2.79s22.12-8.59,13.23-19.26c0,0-2-3.81-8.63-6.6,0,0-2.54-1.33-7.62-7.65,0,0-8.75-9.18-27.84-1.72a1.13,1.13,0,0,0-.53,1.65,22,22,0,0,0,2.15,2.86,1.12,1.12,0,0,1-.84,1.87,9.53,9.53,0,0,1-4.45-1.14,1.12,1.12,0,0,0-1.39.28C572.86,244.9,568.74,251.54,578.45,257.68Z" fill="#4907ab" data-secondary="true"/>
<ellipse cx="607.52" cy="265.14" rx="4.32" ry="6.35" fill="#f9b499"/>
<path d="M703.27,518.36,700,524c-3.81,5.08-9.14,1.78-9.14,1.78-4.83-4.06-7.88-3.56-7.88-3.56l-19.81-23.36c-26.16-32.26-36.32-80.26-36.32-80.26-4.06-15.24,8.13-15.5,8.13-15.5h0c.65-.07,33.57-3.9,42.87,13.6h0c3.1,3.76-1.28,7.2-4.32,9L673,426l-.71.38-.1.05-.53.26-.18.09h0l-.15.07-.26.12c9.9,1.78,14,25.4,14,25.4l10.92,50A31.87,31.87,0,0,0,703.27,518.36Z" fill="#f9b499"/>
<path d="M622.25,438.11c-4.06,22.35-27.18,73.9-27.18,73.9a29.71,29.71,0,0,1-23.36,2.29c.58-6.23-.78-7.24-1.44-7.37a.69.69,0,0,0-.34,0l14.48-83.82c-.26-10.41,10.16-12.45,10.16-12.45,14.47-4.57,21.84,11.18,21.84,11.18C624.54,428.45,622.25,438.11,622.25,438.11Z" fill="#f9b499"/>
<ellipse cx="377.66" cy="360.13" rx="4.83" ry="7.11" transform="translate(-138.4 282.65) rotate(-35.1)" fill="#f9b499"/>
<path d="M429.47,512a163.5,163.5,0,0,1-17.54-1.17L442,545.11c.1.12.21.23.32.34,7.82,7.89,6.5,11.76,6,12.61a4.31,4.31,0,0,0-.22.49c-2.26,6.12-9,11.48-12.86,14.15a7.92,7.92,0,0,1-7.45.86c-16.07-6.46-49.17-43.26-49.17-43.26-19.05-20.32-19.6-34.56-19.6-34.56-6.79-17.36,53.22-29.16,59.47-30.34l.13,0,.29-.05h.1c18-3.31,39.61-6.37,39.61-6.37a5.71,5.71,0,0,0,2.51-.91c8.09,9,10.95,28.6,10.95,28.6,6.11,22.39-22.79,25.67-42.67,25.38Z" fill="#4907ab" data-secondary="true"/>
<path d="M439.89,576.91a.38.38,0,0,1-.29-.63A59.28,59.28,0,0,0,448,562.47a.38.38,0,1,1,.71.29,59.93,59.93,0,0,1-8.57,14A.38.38,0,0,1,439.89,576.91Z" fill="#4907ab" data-secondary="true"/>
<path d="M458.74,570h-.05a34,34,0,0,1-11.67-4.4.38.38,0,0,1,.38-.66,34.13,34.13,0,0,0,11.39,4.3.38.38,0,0,1-.05.76Z" fill="#4907ab" data-secondary="true"/>
<path d="M455.35,594.84a.39.39,0,0,1-.23-.07c-3.91-3-15-.7-15.15-.68a.38.38,0,0,1-.16-.74c.47-.1,11.58-2.4,15.77.81a.38.38,0,0,1,.07.54A.39.39,0,0,1,455.35,594.84Z" fill="#4907ab" data-secondary="true"/>
<path d="M455.13,600.78a.34.34,0,0,1-.22-.07c-5.14-3.66-17.1-.81-17.22-.78a.39.39,0,0,1-.46-.28.38.38,0,0,1,.28-.46c.51-.13,12.43-3,17.84.9a.38.38,0,0,1,.09.53A.37.37,0,0,1,455.13,600.78Z" fill="#4907ab" data-secondary="true"/>
<path d="M760.33,419.51l-85.5,9.32s-.26-.63-3.81-1.9l33.41-5.3,52.18-5.05L696.92,301l-20,8.36h0a17.51,17.51,0,0,1-.13-6.05L699,294.6l63.58,120.76A2.84,2.84,0,0,1,760.33,419.51Z" fill="#b3b3b3"/>
<path d="M641.9,268.31A227,227,0,0,0,657,287.21a105.83,105.83,0,0,0,17.82,16.28c-13-7.74-25-22.42-32.93-35.18Z" opacity="0.2"/>
<path d="M600.9,362.63a4.21,4.21,0,0,1,0-1.66l.13-1.66c.62-7.57.22-15.65-.09-23.25a76.81,76.81,0,0,1,.88,20c-.15,1.67-.41,3.32-.71,5a4.54,4.54,0,0,0-.17,1.63Z" opacity="0.2"/>
<line x1="451.32" y1="51.03" x2="676.86" y2="369.02" fill="none" stroke="gray" stroke-miterlimit="10" stroke-width="2"/>
<polygon points="573 438.11 569.93 438.11 575.52 385.02 676.2 367.08 720.29 340.83 724.73 349.34 682.7 372.07 703.27 424.25 694.15 425.65 676.2 373.47 580.79 395.06 578.57 431.5 583.2 430.12 582 437.08 573 438.11" fill="#b3b3b3"/>
<path d="M427.61,510.69l57.62-4.32a2.5,2.5,0,0,0,2.29-2.84L473,399.24h4.32l15.35,110a2.51,2.51,0,0,1-2.42,2.85l-40.18,1S437.6,514.55,427.61,510.69Z" fill="#b3b3b3"/>
<path d="M539.72,368.67a.72.72,0,0,0,.67.46.58.58,0,0,0,.19,0l.67-.18a.83.83,0,0,1,1,1.16c-1.4,3.05-6.39,9.65-23.6,11.39L494.51,399s-8.13,8.68-34.44,9.61c-2.62-10.75-1.21-24.94-1.21-24.94h0a66,66,0,0,0,18.69,2.69,14.78,14.78,0,0,0,5.61-1.08l30-12.05s-1.88-2,4.72-8.41c0,0,7.09-13.56,10.14-11.78l-1.78,10.67,12.89-5.2a2,2,0,0,1,1.71,3.67l-4.49,2.38a.45.45,0,0,0-.14.68.43.43,0,0,0,.35.17l.14,0,5.92-2a1.21,1.21,0,0,1,1.52.68c.29.77-.19,2-4,3.66A.73.73,0,0,0,539.72,368.67Z" fill="#f9b499"/>
<path d="M482.43,448.26l-42.6.74a1.69,1.69,0,0,0-1.66,1.75l2.27,61h6.72l-2.86-55.42a1.69,1.69,0,0,1,1.62-1.78l36.51-1.26Z" fill="#b3b3b3"/>
<path d="M362.49,437.93l-5.4,5.76s-12.19-27.94-12.95-39.87c0,0,1.17-9.91-1.58-16,0,0-.46-2,2.08-2H348a1.31,1.31,0,0,0,1.31-1.44h0a1.32,1.32,0,0,0-1.48-1.18l-2.77.36a.9.9,0,0,1-1-.95h0a.9.9,0,0,1,.9-.85h1.85a1.25,1.25,0,0,0,1.24-1.41h0a1.25,1.25,0,0,0-1.48-1.07l-3.42.67a2.69,2.69,0,0,1,1.74-2.48,1.51,1.51,0,0,0,.85-1.5h0a1.54,1.54,0,0,0-2-1.33c-3.61,1.14-11.2,4.5-10.81,12.45,0,0-1,10.16,3.05,17.78,0,0-3.83,68.83,17,65,0,0,5.85,1,22.86-19.3A47.53,47.53,0,0,1,362.49,437.93Z" fill="#f9b499"/>
<path d="M357.09,443.69s1.44,1.05,2.75,9.42c0,0,2.75-5.13,0-12.35Z" fill="#f7a48b"/>
<path d="M349.47,451.31V484.1a54.81,54.81,0,0,0-5.59,2.55V451.31a2.79,2.79,0,0,1,2.8-2.79,2.8,2.8,0,0,1,2.79,2.79Z" fill="#b3b3b3"/>
<path d="M349.47,451.31s40,10.3,88.7-.56l.27,7.27s-46.81,8-89,0Z" fill="#b3b3b3"/>
<line x1="330.83" y1="108.97" x2="445.73" y2="448.77" fill="none" stroke="gray" stroke-miterlimit="10" stroke-width="2"/>
<path d="M272.87,365.43a1.07,1.07,0,0,1-1.46-.69L260.6,325.51a3.17,3.17,0,0,1,2-3.84l29.18-10.09a3.16,3.16,0,0,1,4,1.89l6,16,10-5.67.58-.33,7.16,14-31,20.94Zm20-52.76a1.74,1.74,0,0,0-.63.11L263,322.87a1.91,1.91,0,0,0-1.21,2.31l10.75,39L288,357.29l30-20.23-6.05-11.81c-2,1.13-8.6,4.86-10.09,5.72l-.65.37-6.5-17.43A1.9,1.9,0,0,0,292.85,312.67Z" fill="#b3b3b3"/>
<path d="M266.14,343.22l13.95-5s17.57-5.51,21.38-7.8" fill="none" stroke="#b3b3b3" stroke-miterlimit="10" stroke-width="5"/>
<line x1="288.26" y1="357.85" x2="280.09" y2="338.21" fill="none" stroke="#b3b3b3" stroke-miterlimit="10" stroke-width="5"/>
<path d="M266.23,194h.62a1.59,1.59,0,0,1,1.59,1.59v4.68a1.59,1.59,0,0,1-1.59,1.59h-.62a1.59,1.59,0,0,1-1.59-1.59v-4.68A1.6,1.6,0,0,1,266.23,194Z" transform="translate(-15.16 22.24) rotate(-4.65)" fill="#666"/>
<circle cx="192.63" cy="261.71" r="14.6" fill="#fff" opacity="0.7"/>
<circle cx="183.36" cy="306.29" r="7.87" fill="#fff" opacity="0.7"/>
<circle cx="145.01" cy="339.56" r="14.48" fill="#fff" opacity="0.7"/>
<circle cx="149.84" cy="420.83" r="14.48" fill="#fff" opacity="0.7"/>
<circle cx="197.59" cy="494.49" r="14.48" fill="#fff" opacity="0.7"/>
<circle cx="197.46" cy="444.07" r="8.51" fill="#fff" opacity="0.7"/>
<path d="M251.24,478.18a11,11,0,0,1-1.83-21.65Z" fill="#fff" opacity="0.7"/>
<path d="M248.74,448.53c-34.76-3-62.08-33.64-62.08-71,0-33,21.34-60.78,50.28-68.86Z" fill="#fff"/>
<circle cx="169.01" cy="377.78" r="8.51" fill="#fff" opacity="0.7"/>
<path d="M225.36,167.83a35.66,35.66,0,0,1-4.53.29c-19,0-34.42-14.73-34.42-32.89,0-13.09,8-24.39,19.58-29.69a35.55,35.55,0,0,1,14.29-3.2l.14,1.73.48,6.25.64,8.2,1.65,21.27.94,12.15.23,3,.49,6.35.41,5.17Z" fill="#e99944" opacity="0.56" data-primary="true"/>
<path d="M224.85,161.26a27.23,27.23,0,0,1-6.44.76c-14.73,0-26.67-11.6-26.67-25.9s11.94-25.91,26.67-25.91c.84,0,1.67,0,2.49.11l.64,8.2,1.65,21.27.94,12.15Z" fill="#fff"/>
<path d="M83.8,223.61c0,13.68-9.61,24.77-21.46,24.77a19,19,0,0,1-7.79-1.68,357.12,357.12,0,0,1,21.31-42.31A26.27,26.27,0,0,1,83.8,223.61Z" fill="#fff" opacity="0.4"/>
</svg>