<?xml version="1.0" encoding="UTF-8"?>
<svg width="25px" height="25px" viewBox="0 0 25 25" version="1.1" xmlns="http://www.w3.org/2000/svg" xmlns:xlink="http://www.w3.org/1999/xlink">
    <!-- Generator: Sketch 42 (36781) - http://www.bohemiancoding.com/sketch -->
    <title>thumbtack</title>
    <desc>Created with Sketch.</desc>
    <defs></defs>
    <g id="Page-1" stroke="none" stroke-width="1" fill="none" fill-rule="evenodd">
        <g id="Full-Color" transform="translate(-150.000000, -50.000000)">
            <g id="thumbtack" transform="translate(150.000000, 50.000000)">
                <path d="M17.832,13.2209 L22.066,8.9869 C22.623,9.5439 23.525,9.5439 24.082,8.9869 C24.639,8.4299 24.639,7.5279 24.082,6.9699 L18.033,0.9209 C17.476,0.3639 16.573,0.3639 16.016,0.9209 C15.459,1.4779 15.459,2.3799 16.016,2.9379 L11.783,7.1709 C11.477,7.4759 11.077,7.6679 10.648,7.7159 L5.752,8.2599 C5.435,8.2949 5.138,8.4379 4.912,8.6639 C4.363,9.2129 4.363,10.1049 4.912,10.6549 L14.349,20.0909 C14.898,20.6409 15.79,20.6409 16.339,20.0909 C16.565,19.8649 16.707,19.5689 16.743,19.2509 L17.287,14.3549 C17.334,13.9259 17.527,13.5259 17.832,13.2209" id="Fill-123" fill="#FF2C55"></path>
                <path d="M23.729,8.633 C23.554,8.808 23.321,8.904 23.074,8.904 L23.074,8.904 C22.827,8.904 22.594,8.808 22.42,8.633 C22.326,8.539 22.199,8.487 22.066,8.487 C21.933,8.487 21.806,8.539 21.712,8.633 L17.479,12.867 C17.094,13.251 16.85,13.76 16.79,14.299 L16.246,19.196 C16.223,19.4 16.131,19.592 15.986,19.737 C15.643,20.08 15.044,20.08 14.702,19.737 L5.266,10.301 C5.095,10.13 5,9.902 5,9.659 C5,9.416 5.094,9.189 5.266,9.018 C5.411,8.872 5.603,8.779 5.807,8.757 L10.703,8.213 C11.242,8.153 11.751,7.908 12.136,7.525 L16.37,3.291 C16.565,3.096 16.565,2.779 16.37,2.584 C16.009,2.223 16.009,1.635 16.37,1.275 C16.545,1.1 16.777,1.003 17.024,1.003 L17.025,1.003 C17.272,1.003 17.504,1.1 17.679,1.275 L23.729,7.323 C24.089,7.685 24.09,8.273 23.729,8.633 M24.436,6.616 L18.387,0.568 C18.023,0.203 17.54,0.003 17.025,0.003 L17.024,0.003 C16.51,0.003 16.026,0.203 15.663,0.568 C15.034,1.196 14.932,2.154 15.356,2.891 L11.43,6.817 C11.205,7.041 10.908,7.184 10.593,7.219 L5.697,7.763 C5.268,7.811 4.863,8.005 4.559,8.311 C4.199,8.67 4,9.15 4,9.659 C4,10.168 4.198,10.648 4.559,11.008 L8.923,15.372 L0.146,24.15 C-0.049,24.345 -0.049,24.661 0.146,24.857 C0.244,24.954 0.372,25.003 0.5,25.003 C0.628,25.003 0.756,24.954 0.854,24.857 L9.63,16.079 L13.995,20.445 C14.367,20.817 14.855,21.002 15.344,21.002 C15.833,21.002 16.321,20.817 16.693,20.445 C16.998,20.139 17.192,19.735 17.24,19.307 L17.784,14.409 C17.819,14.095 17.961,13.798 18.185,13.574 L18.186,13.574 L22.112,9.648 C22.401,9.816 22.73,9.904 23.074,9.904 L23.074,9.904 C23.588,9.904 24.072,9.704 24.436,9.34 C25.187,8.59 25.187,7.368 24.436,6.616" id="Fill-175" fill="#000000"></path>
                <path d="M13.9951,20.4445 C14.3551,20.8045 14.8351,21.0035 15.3441,21.0035 C15.8531,21.0035 16.3331,20.8045 16.6921,20.4445 C16.9981,20.1385 17.1921,19.7345 17.2401,19.3055 L17.4421,17.4815 C17.4721,17.2195 17.2921,16.9805 17.0321,16.9345 C16.7701,16.8925 16.5211,17.0525 16.4601,17.3085 C16.4151,17.4905 16.3411,17.6355 16.2391,17.7375 C15.8871,18.0905 15.3091,18.0915 14.9551,17.7375 L5.5591,8.3495 C5.5461,8.3255 5.4991,8.2505 5.4811,8.2285 C5.3231,8.0275 4.9731,8.0225 4.7571,8.1585 C4.7041,8.1925 4.6311,8.2385 4.5581,8.3105 C4.1981,8.6705 4.0001,9.1495 4.0001,9.6595 C4.0001,10.1685 4.1981,10.6475 4.5581,11.0075 L13.9951,20.4445 Z" id="Fill-312" fill="#000000" opacity="0.119999997"></path>
            </g>
        </g>
    </g>
</svg>